<?xml version="1.0"?>
<svg xmlns="http://www.w3.org/2000/svg" xmlns:xlink="http://www.w3.org/1999/xlink" version="1.1" id="Capa_1" x="0px" y="0px" viewBox="0 0 408 408" style="enable-background:new 0 0 408 408;" xml:space="preserve" width="512px" height="512px"><g><g>
	<g>
		<path d="M397.9,83c5.5,0,10-4.5,10.1-10V10.1C408,4.5,403.5,0,397.9,0H335c-5.5,0-10,4.5-10,10.1V32H83V10.1c0-5.5-4.5-10-10-10.1    H10.1C4.6,0,0.1,4.5,0,10.1V73c0,5.5,4.5,10,10.1,10H32v242H10.1c-5.5,0-10,4.5-10.1,10v62.9c0,5.5,4.5,10,10.1,10.1H73    c5.5,0,10-4.5,10-10.1V376h242v21.9c0,5.5,4.5,10,10,10.1h62.9c5.5,0,10-4.5,10.1-10.1V335c0-5.5-4.5-10-10.1-10H376V83H397.9z     M20,63V20h43v43H20z M63,388H20v-43h43V388z M325,335v21H83v-21c0-5.5-4.5-10-10-10H52V83h21c5.5,0,10-4.5,10-10V52h242v21    c0,5.5,4.5,10,10,10h21v242h-21C329.5,325,325,329.5,325,335z M388,345v43h-43v-43H388z M345,63V20h43v43H345z" data-original="#000000" class="active-path" data-old_color="#000000" fill="#AEB5C7"/>
	</g>
</g></g> </svg>
