<?xml version="1.0"?>
<svg xmlns="http://www.w3.org/2000/svg" xmlns:xlink="http://www.w3.org/1999/xlink" xmlns:svgjs="http://svgjs.com/svgjs" version="1.1" width="512" height="512" x="0" y="0" viewBox="0 0 512 512" style="enable-background:new 0 0 512 512" xml:space="preserve"><g>
<g xmlns="http://www.w3.org/2000/svg">
	<g>
		<path d="M484.66,461.309l-8.06-19.028c-17.218,15.087-38.093,26.095-61.107,31.495l14.787,19.245    c5.965,7.762,15.371,12.396,25.162,12.396c10.672,0,20.561-5.312,26.455-14.208C487.789,482.311,488.823,471.134,484.66,461.309z" fill="#a1abc9" data-original="#000000" style=""/>
	</g>
</g>
<g xmlns="http://www.w3.org/2000/svg">
	<g>
		<path d="M35.401,442.281l-8.06,19.028c-4.162,9.826-3.129,21.003,2.764,29.899c5.893,8.896,15.783,14.208,26.455,14.208    c9.79,0,19.195-4.634,25.163-12.397l14.786-19.244C73.494,468.376,52.618,457.368,35.401,442.281z" fill="#a1abc9" data-original="#000000" style=""/>
	</g>
</g>
<g xmlns="http://www.w3.org/2000/svg">
	<g>
		<path d="M183.109,60.263h-1.639c-4.049-30.259-30.015-53.679-61.364-53.679h-13.814c-34.148,0-61.931,27.782-61.931,61.931    v129.717h30.073V68.514c0-17.566,14.292-31.858,31.858-31.858h13.814c14.713,0,27.122,10.028,30.768,23.606h-2.429    c-23.922,0-43.384,19.462-43.384,43.384v25.366c0,8.042,6.319,14.59,14.26,14.997c0.259,0.013,0.514,0.039,0.776,0.039h91.359    c8.304,0,15.036-6.732,15.036-15.036v-25.365C226.493,79.725,207.031,60.263,183.109,60.263z" fill="#a1abc9" data-original="#000000" style=""/>
	</g>
</g>
<g xmlns="http://www.w3.org/2000/svg">
	<g>
		<path d="M16.881,316.254v19.082c0,61.821,50.294,112.116,112.115,112.116h254.009c61.82,0,112.115-50.294,112.115-112.116v-19.082    H16.881z" fill="#a1abc9" data-original="#000000" style=""/>
	</g>
</g>
<g xmlns="http://www.w3.org/2000/svg">
	<g>
		<path d="M490.37,242.697H21.63C9.703,242.698,0,252.402,0,264.329s9.703,21.63,21.63,21.63h468.74    c11.927,0,21.63-9.703,21.63-21.63S502.297,242.697,490.37,242.697z" fill="#a1abc9" data-original="#000000" style=""/>
	</g>
</g>
<g xmlns="http://www.w3.org/2000/svg">
</g>
<g xmlns="http://www.w3.org/2000/svg">
</g>
<g xmlns="http://www.w3.org/2000/svg">
</g>
<g xmlns="http://www.w3.org/2000/svg">
</g>
<g xmlns="http://www.w3.org/2000/svg">
</g>
<g xmlns="http://www.w3.org/2000/svg">
</g>
<g xmlns="http://www.w3.org/2000/svg">
</g>
<g xmlns="http://www.w3.org/2000/svg">
</g>
<g xmlns="http://www.w3.org/2000/svg">
</g>
<g xmlns="http://www.w3.org/2000/svg">
</g>
<g xmlns="http://www.w3.org/2000/svg">
</g>
<g xmlns="http://www.w3.org/2000/svg">
</g>
<g xmlns="http://www.w3.org/2000/svg">
</g>
<g xmlns="http://www.w3.org/2000/svg">
</g>
<g xmlns="http://www.w3.org/2000/svg">
</g>
</g></svg>
