<?xml version="1.0" encoding="UTF-8"?>
<svg width="1600px" height="874px" viewBox="0 0 1600 874" version="1.1" xmlns="http://www.w3.org/2000/svg" xmlns:xlink="http://www.w3.org/1999/xlink">
    <!-- Generator: Sketch 52.2 (67145) - http://www.bohemiancoding.com/sketch -->
    <title>Group 12</title>
    <desc>Created with Sketch.</desc>
    <defs>
        <rect id="path-1" x="0" y="0" width="1811" height="991"></rect>
        <linearGradient x1="-0.0389140271%" y1="50.00365%" x2="100.024434%" y2="50.00365%" id="linearGradient-3">
            <stop stop-color="#F2F7FF" offset="0%"></stop>
            <stop stop-color="#E3EFFF" offset="100%"></stop>
        </linearGradient>
        <linearGradient x1="-0.0284842319%" y1="50.0031313%" x2="99.9555443%" y2="50.0031313%" id="linearGradient-4">
            <stop stop-color="#F2F7FF" offset="0%"></stop>
            <stop stop-color="#E3EFFF" offset="100%"></stop>
        </linearGradient>
        <linearGradient x1="-0.00928894369%" y1="50.0157619%" x2="99.9715577%" y2="50.0157619%" id="linearGradient-5">
            <stop stop-color="#F2F7FF" offset="0%"></stop>
            <stop stop-color="#E3EFFF" offset="100%"></stop>
        </linearGradient>
        <linearGradient x1="0.0223728814%" y1="50.0040645%" x2="99.9727684%" y2="50.0040645%" id="linearGradient-6">
            <stop stop-color="#F2F7FF" offset="0%"></stop>
            <stop stop-color="#E3EFFF" offset="51.4%"></stop>
        </linearGradient>
        <linearGradient x1="-0.00842148088%" y1="50.0145695%" x2="100.007893%" y2="50.0145695%" id="linearGradient-7">
            <stop stop-color="#F2F7FF" offset="0%"></stop>
            <stop stop-color="#E3EFFF" offset="100%"></stop>
        </linearGradient>
        <linearGradient x1="0.0156417534%" y1="50.0117509%" x2="99.9949227%" y2="50.0117509%" id="linearGradient-8">
            <stop stop-color="#F2F7FF" offset="0%"></stop>
            <stop stop-color="#E3EFFF" offset="100%"></stop>
        </linearGradient>
        <linearGradient x1="0%" y1="50.0019899%" x2="99.9870039%" y2="50.0019899%" id="linearGradient-9">
            <stop stop-color="#F2F7FF" offset="0%"></stop>
            <stop stop-color="#E3EFFF" offset="100%"></stop>
        </linearGradient>
        <linearGradient x1="-0.0166539924%" y1="49.9987459%" x2="99.9962357%" y2="49.9987459%" id="linearGradient-10">
            <stop stop-color="#F2F7FF" offset="0%"></stop>
            <stop stop-color="#E3EFFF" offset="100%"></stop>
        </linearGradient>
        <linearGradient x1="-0.032398524%" y1="50.0278515%" x2="99.9984502%" y2="50.0278515%" id="linearGradient-11">
            <stop stop-color="#F2F7FF" offset="0%"></stop>
            <stop stop-color="#E3EFFF" offset="51.4%"></stop>
        </linearGradient>
    </defs>
    <g id="Page-1" stroke="none" stroke-width="1" fill="none" fill-rule="evenodd" opacity="0.89687965">
        <g id="home1">
            <g id="Group-12" transform="translate(-111.000000, -117.000000)">
                <mask id="mask-2" fill="white">
                    <use xlink:href="#path-1"></use>
                </mask>
                <use id="Rectangle" fill="#FFFFFF" fill-rule="nonzero" xlink:href="#path-1"></use>
                <g id="PC-4" opacity="0.900000036" mask="url(#mask-2)">
                    <g transform="translate(0.000000, -54.000000)">
                        <polygon id="Rectangle-path" stroke="none" fill="#FFFFFF" fill-rule="nonzero" points="81.7726737 155.209658 1773.10365 155.209658 1773.10365 1044.98587 81.7726737 1044.98587"></polygon>
                        <path d="M1350.58598,646.09894 L1349.95583,646.09894 L1349.95583,642.318021 L1350.58598,642.318021 L1350.58598,646.09894 Z M1350.58598,637.969965 L1349.95583,637.969965 L1349.95583,633.558893 L1350.58598,633.558893 L1350.58598,637.969965 Z M1350.58598,629.147821 L1349.95583,629.147821 L1349.95583,624.736749 L1350.58598,624.736749 L1350.58598,629.147821 Z M1350.58598,620.325677 L1349.95583,620.325677 L1349.95583,615.914605 L1350.58598,615.914605 L1350.58598,620.325677 Z M1350.58598,611.503534 L1349.95583,611.503534 L1349.95583,607.092462 L1350.58598,607.092462 L1350.58598,611.503534 Z M1350.58598,602.68139 L1349.95583,602.68139 L1349.95583,598.270318 L1350.58598,598.270318 L1350.58598,602.68139 Z M1350.58598,593.859246 L1349.95583,593.859246 L1349.95583,589.448174 L1350.58598,589.448174 L1350.58598,593.859246 Z M1350.58598,585.037102 L1349.95583,585.037102 L1349.95583,580.626031 L1350.58598,580.626031 L1350.58598,585.037102 Z M1350.58598,576.214959 L1349.95583,576.214959 L1349.95583,571.803887 L1350.58598,571.803887 L1350.58598,576.214959 Z M1350.58598,567.392815 L1349.95583,567.392815 L1349.95583,562.981743 L1350.58598,562.981743 L1350.58598,567.392815 Z M1350.58598,558.570671 L1349.95583,558.570671 L1349.95583,554.1596 L1350.58598,554.1596 L1350.58598,558.570671 Z M1350.58598,549.748528 L1349.95583,549.748528 L1349.95583,545.337456 L1350.58598,545.337456 L1350.58598,549.748528 Z M1350.58598,540.926384 L1349.95583,540.926384 L1349.95583,536.515312 L1350.58598,536.515312 L1350.58598,540.926384 Z M1350.58598,532.10424 L1349.95583,532.10424 L1349.95583,527.693168 L1350.58598,527.693168 L1350.58598,532.10424 Z M1350.58598,523.282097 L1349.95583,523.282097 L1349.95583,518.871025 L1350.58598,518.871025 L1350.58598,523.282097 Z M1350.58598,514.459953 L1349.95583,514.459953 L1349.95583,510.048881 L1350.58598,510.048881 L1350.58598,514.459953 Z M1350.58598,505.637809 L1349.95583,505.637809 L1349.95583,501.226737 L1350.58598,501.226737 L1350.58598,505.637809 Z M1350.58598,496.815665 L1349.95583,496.815665 L1349.95583,492.404594 L1350.58598,492.404594 L1350.58598,496.815665 Z M1350.58598,487.993522 L1349.95583,487.993522 L1349.95583,483.58245 L1350.58598,483.58245 L1350.58598,487.993522 Z M1350.58598,479.171378 L1349.95583,479.171378 L1349.95583,474.760306 L1350.58598,474.760306 L1350.58598,479.171378 Z M1350.58598,470.349234 L1349.95583,470.349234 L1349.95583,465.938163 L1350.58598,465.938163 L1350.58598,470.349234 Z M1350.58598,461.527091 L1349.95583,461.527091 L1349.95583,457.116019 L1350.58598,457.116019 L1350.58598,461.527091 Z M1350.58598,452.704947 L1349.95583,452.704947 L1349.95583,448.293875 L1350.58598,448.293875 L1350.58598,452.704947 Z M1350.58598,443.882803 L1349.95583,443.882803 L1349.95583,439.471731 L1350.58598,439.471731 L1350.58598,443.882803 Z M1350.58598,435.06066 L1349.95583,435.06066 L1349.95583,430.649588 L1350.58598,430.649588 L1350.58598,435.06066 Z M1350.58598,426.238516 L1349.95583,426.238516 L1349.95583,421.827444 L1350.58598,421.827444 L1350.58598,426.238516 Z M1350.58598,417.416372 L1349.95583,417.416372 L1349.95583,413.0053 L1350.58598,413.0053 L1350.58598,417.416372 Z M1350.58598,408.594229 L1349.95583,408.594229 L1349.95583,404.183157 L1350.58598,404.183157 L1350.58598,408.594229 Z M1350.58598,399.772085 L1349.95583,399.772085 L1349.95583,395.361013 L1350.58598,395.361013 L1350.58598,399.772085 Z M1350.58598,390.949941 L1349.95583,390.949941 L1349.95583,386.538869 L1350.58598,386.538869 L1350.58598,390.949941 Z M1350.58598,382.127797 L1349.95583,382.127797 L1349.95583,377.716726 L1350.58598,377.716726 L1350.58598,382.127797 Z M1350.58598,373.305654 L1349.95583,373.305654 L1349.95583,368.894582 L1350.58598,368.894582 L1350.58598,373.305654 Z M1350.58598,364.48351 L1349.95583,364.48351 L1349.95583,360.072438 L1350.58598,360.072438 L1350.58598,364.48351 Z M1350.58598,355.661366 L1349.95583,355.661366 L1349.95583,351.250294 L1350.58598,351.250294 L1350.58598,355.661366 Z M1350.58598,346.839223 L1349.95583,346.839223 L1349.95583,342.428151 L1350.58598,342.428151 L1350.58598,346.839223 Z M1350.58598,338.017079 L1349.95583,338.017079 L1349.95583,333.606007 L1350.58598,333.606007 L1350.58598,338.017079 Z M1350.58598,329.194935 L1349.95583,329.194935 L1349.95583,324.783863 L1350.58598,324.783863 L1350.58598,329.194935 Z M1350.58598,320.372792 L1349.95583,320.372792 L1349.95583,315.96172 L1350.58598,315.96172 L1350.58598,320.372792 Z M1350.58598,311.550648 L1349.95583,311.550648 L1349.95583,307.139576 L1350.58598,307.139576 L1350.58598,311.550648 Z M1350.58598,302.728504 L1349.95583,302.728504 L1349.95583,298.317432 L1350.58598,298.317432 L1350.58598,302.728504 Z M1350.58598,293.90636 L1349.95583,293.90636 L1349.95583,289.495289 L1350.58598,289.495289 L1350.58598,293.90636 Z M1350.58598,285.084217 L1349.95583,285.084217 L1349.95583,280.673145 L1350.58598,280.673145 L1350.58598,285.084217 Z M1350.58598,276.262073 L1349.95583,276.262073 L1349.95583,271.851001 L1350.58598,271.851001 L1350.58598,276.262073 Z M1350.58598,267.439929 L1349.95583,267.439929 L1349.95583,263.028857 L1350.58598,263.028857 L1350.58598,267.439929 Z M1350.58598,258.617786 L1349.95583,258.617786 L1349.95583,254.206714 L1350.58598,254.206714 L1350.58598,258.617786 Z M1350.58598,249.795642 L1349.95583,249.795642 L1349.95583,245.38457 L1350.58598,245.38457 L1350.58598,249.795642 Z M1350.58598,240.973498 L1349.95583,240.973498 L1349.95583,236.562426 L1350.58598,236.562426 L1350.58598,240.973498 Z M1350.58598,232.151355 L1349.95583,232.151355 L1349.95583,227.740283 L1350.58598,227.740283 L1350.58598,232.151355 Z M1350.58598,223.329211 L1349.95583,223.329211 L1349.95583,218.918139 L1350.58598,218.918139 L1350.58598,223.329211 Z M1350.58598,214.507067 L1349.95583,214.507067 L1349.95583,210.095995 L1350.58598,210.095995 L1350.58598,214.507067 Z M1350.58598,205.684923 L1349.95583,205.684923 L1349.95583,201.273852 L1350.58598,201.273852 L1350.58598,205.684923 Z M1350.58598,196.86278 L1349.95583,196.86278 L1349.95583,192.451708 L1350.58598,192.451708 L1350.58598,196.86278 Z M1350.58598,188.040636 L1349.95583,188.040636 L1349.95583,183.629564 L1350.58598,183.629564 L1350.58598,188.040636 Z M1350.58598,179.218492 L1349.95583,179.218492 L1349.95583,174.80742 L1350.58598,174.80742 L1350.58598,179.218492 Z M1350.58598,170.396349 L1349.95583,170.396349 L1349.95583,165.985277 L1350.58598,165.985277 L1350.58598,170.396349 Z M1350.58598,161.574205 L1349.95583,161.574205 L1349.95583,157.163133 L1350.58598,157.163133 L1350.58598,161.574205 Z M1350.58598,152.752061 L1349.95583,152.752061 L1349.95583,148.340989 L1350.58598,148.340989 L1350.58598,152.752061 Z M1350.58598,143.929918 L1349.95583,143.929918 L1349.95583,139.518846 L1350.58598,139.518846 L1350.58598,143.929918 Z" id="Shape" stroke="none" fill="#141454" fill-rule="nonzero"></path>
                        <path d="M1119.06773,255.908127 L1054.79211,255.908127 L976.022968,255.908127 L1006.90047,252.127208 C1006.90047,252.127208 1006.27032,243.305065 1010.68139,247.085984 C1015.09246,250.866902 1021.39399,250.866902 1022.02415,252.757362 C1022.6543,254.647821 1013.202,240.784452 1027.06537,250.866902 C1040.92874,260.949352 1055.42226,252.757362 1055.42226,252.757362 L1074.32686,254.647821 L1119.06773,255.908127 Z" id="Shape" stroke="none" fill="#C4E0F5" fill-rule="nonzero"></path>
                        <g id="Group" stroke="none" stroke-width="1" fill="none" fill-rule="evenodd" transform="translate(1376.737338, 211.293286)">
                            <rect id="Rectangle-path" fill="#FFFFFF" fill-rule="nonzero" x="0.945229682" y="1.38633687" width="280.229093" height="485.659011"></rect>
                            <path d="M282.119552,487.990577 L0,487.990577 L0,0.441107185 L282.119552,0.441107185 L282.119552,487.990577 Z M1.89045936,486.100118 L280.229093,486.100118 L280.229093,2.33156655 L1.89045936,2.33156655 L1.89045936,486.100118 Z" id="Shape" fill="#8DC6F9" fill-rule="nonzero"></path>
                        </g>
                        <polygon id="Rectangle-path" stroke="none" fill="url(#linearGradient-3)" fill-rule="nonzero" points="998.330389 312.747939 1040.10954 312.747939 1040.10954 765.071849 998.330389 765.071849"></polygon>
                        <polygon id="Rectangle-path" stroke="none" fill="url(#linearGradient-4)" fill-rule="nonzero" points="1174.01708 0.948174323 1235.96113 0.948174323 1235.96113 783.787397 1174.01708 783.787397"></polygon>
                        <polygon id="Rectangle-path" stroke="none" fill="url(#linearGradient-5)" fill-rule="nonzero" opacity="0.62" points="868.266784 663.365135 1021.58304 663.365135 1021.58304 759.715548 868.266784 759.715548"></polygon>
                        <polygon id="Rectangle-path" stroke="none" fill="url(#linearGradient-6)" fill-rule="nonzero" points="877.530035 576.404005 933.298587 576.404005 933.298587 771.751472 877.530035 771.751472"></polygon>
                        <path d="M81.7726737,1015.99882 L772.735571,759.778563 C772.735571,759.778563 1128.8351,759.778563 1144.33687,759.778563 C1159.83863,759.778563 1855.65371,1004.65607 1855.65371,1004.65607 L1855.65371,1044.98587 L83.6631331,1044.54476 L81.7726737,1015.99882 Z" id="Shape" stroke="none" fill="#142F85" fill-rule="nonzero"></path>
                        <polygon id="Shape" stroke="none" fill="#C4E0F5" fill-rule="nonzero" points="608.139576 755.745583 786.220848 755.745583 786.220848 230.702002 727.112485 231.332155"></polygon>
                        <g id="Group" stroke="none" stroke-width="1" fill="none" fill-rule="evenodd" transform="translate(789.434629, 243.431095)">
                            <polygon id="Rectangle-path" fill="#FFFFFF" fill-rule="nonzero" points="1.38633687 1.51236749 61.7550059 1.51236749 61.7550059 518.363958 1.38633687 518.363958"></polygon>
                            <path d="M62.7002356,519.309187 L0.441107185,519.309187 L0.441107185,0.567137809 L62.7002356,0.567137809 L62.7002356,519.309187 Z M2.33156655,517.418728 L60.8097762,517.418728 L60.8097762,2.45759717 L2.33156655,2.45759717 L2.33156655,517.418728 Z" id="Shape" fill="#8DC6F9" fill-rule="nonzero"></path>
                        </g>
                        <polygon id="Rectangle-path" stroke="none" fill="#C4E0F5" fill-rule="nonzero" points="860.38987 407.775029 889.944052 407.775029 889.944052 750.389282 860.38987 750.389282"></polygon>
                        <g id="Group" stroke="none" stroke-width="1" fill="none" fill-rule="evenodd" transform="translate(1031.413428, 323.460542)">
                            <polygon id="Shape" fill="#FFFFFF" fill-rule="nonzero" points="118.531802 430.898704 0.945229682 430.898704 0.945229682 24.0718492 25.7102473 1.26030624 118.090695 2.5836278"></polygon>
                            <path d="M119.477032,431.843934 L0,431.843934 L0,23.6937574 L25.3321555,0.315076561 L119.035925,1.63839812 L119.477032,431.843934 Z M1.89045936,429.953475 L117.586572,429.953475 L117.145465,3.46584217 L26.0883392,2.20553592 L1.89045936,24.5129564 L1.89045936,429.953475 Z" id="Shape" fill="#8DC6F9" fill-rule="nonzero"></path>
                        </g>
                        <polygon id="Rectangle-path" stroke="none" fill="#C4E0F5" fill-rule="nonzero" points="1057.12367 323.460542 1150.00824 323.460542 1150.00824 750.326266 1057.12367 750.326266"></polygon>
                        <polygon id="Rectangle-path" stroke="none" fill="#8DC6F9" fill-rule="nonzero" points="1073.31861 396.621319 1084.15724 396.621319 1084.15724 414.013545 1073.31861 414.013545"></polygon>
                        <g id="Group" stroke="none" stroke-width="1" fill="none" fill-rule="evenodd" transform="translate(81.772674, 937.229682)">
                            <polygon id="Shape" fill="#FFFFFF" fill-rule="nonzero" points="799.727326 109.205536 881.14311 109.205536 875.030624 0.0630153121 816.993522 0.0630153121"></polygon>
                            <polygon id="Shape" fill="#FFFFFF" fill-rule="nonzero" points="670.293875 109.205536 592.595995 109.205536 659.140165 3.71790342 714.656655 3.71790342"></polygon>
                            <polygon id="Shape" fill="url(#linearGradient-7)" fill-rule="nonzero" points="467.258539 108.386337 393.278563 108.386337 496.371614 3.71790342 548.1702 3.71790342"></polygon>
                            <polygon id="Shape" fill="#C4E0F5" fill-rule="nonzero" points="285.522379 108.575383 204.106596 108.575383 344.693757 3.71790342 400.210247 3.71790342"></polygon>
                            <polygon id="Shape" fill="#677DA4" fill-rule="nonzero" points="70.3250883 109.205536 0 109.205536 232.526502 4.97820966 270.020612 5.98645465"></polygon>
                            <polygon id="Shape" fill="#FFFFFF" fill-rule="nonzero" points="966.213781 3.71790342 1007.55183 112.167256 1074.15901 112.167256 1018.01237 2.5836278"></polygon>
                            <polygon id="Shape" fill="#FFFFFF" fill-rule="nonzero" points="1177.12603 7.43580683 1125.32744 7.43580683 1210.39812 114.750883 1280.7232 114.750883"></polygon>
                            <polygon id="Shape" fill="url(#linearGradient-8)" fill-rule="nonzero" points="1336.17668 11.1537102 1284.37809 11.1537102 1413.87456 118.405771 1484.19965 118.405771"></polygon>
                            <polygon id="Shape" fill="#C4E0F5" fill-rule="nonzero" points="1476.76384 14.8716137 1424.96525 14.8716137 1613.69611 125.841578 1687.67609 125.841578"></polygon>
                            <polygon id="Shape" fill="#677DA4" fill-rule="nonzero" points="1624.47173 13.737338 1568.95524 13.737338 1787.24028 117.334511 1874.9576 98.6189635"></polygon>
                        </g>
                        <polygon id="Shape" stroke="none" fill="#142F85" fill-rule="nonzero" points="1727.98469 950.777974 237.420495 950.777974 301.696113 924.311543 1727.98469 924.311543"></polygon>
                        <polygon id="Shape" stroke="none" fill="#3151B7" fill-rule="nonzero" points="771.475265 759.715548 80.5123675 711.571849 80.5123675 1015.99882 805.81861 762.677267"></polygon>
                        <polyline id="Shape" stroke="none" fill="#3151B7" fill-rule="nonzero" points="1143.07656 759.715548 1854.3934 1004.65607 1854.3934 855.246761 1173.82803 757.636042"></polyline>
                        <polygon id="Shape" stroke="none" fill="#361828" fill-rule="nonzero" points="805.81861 762.677267 80.5123675 1015.99882 80.5123675 1031.1225"></polygon>
                        <polygon id="Shape" stroke="none" fill="url(#linearGradient-9)" fill-rule="nonzero" points="527.984099 95.2190813 527.984099 798.53298 319.970554 858.397527 319.970554 124.836278"></polygon>
                        <polygon id="Shape" stroke="none" fill="#D6EAF8" fill-rule="nonzero" points="320.600707 857.767373 156.130742 857.767373 156.130742 127.987044 318.710247 126.096584"></polygon>
                        <polygon id="Shape" stroke="none" fill="#B7DDFF" fill-rule="nonzero" points="219.406361 859.02768 65.9740252 910.070082 55.9363958 97.1095406 219.406361 102.780919"></polygon>
                        <polygon id="Shape" stroke="none" fill="#FFB000" fill-rule="nonzero" points="422.244405 237.885748 489.103651 307.202591 489.103651 381.56066 422.18139 324.594817"></polygon>
                        <polygon id="Shape" stroke="none" fill="#FFFFFF" fill-rule="nonzero" points="422.244405 124.521201 489.103651 193.90106 489.103651 278.089517 422.18139 211.230271"></polygon>
                        <polygon id="Shape" stroke="none" fill="#8DC6F9" fill-rule="nonzero" points="570.204358 781.518846 526.09364 782.212014 526.09364 122.630742 600.451708 197.303887"></polygon>
                        <polygon id="Shape" stroke="none" fill="url(#linearGradient-10)" fill-rule="nonzero" points="735.934629 150.042403 735.934629 752.909894 570.204358 781.518846 570.204358 148.404005"></polygon>
                        <polygon id="Shape" stroke="none" fill="#677DA4" fill-rule="nonzero" points="164.322733 797.272674 118.321555 806.094817 118.321555 53.6289753 164.322733 53.6289753"></polygon>
                        <polygon id="Shape" stroke="none" fill="#8DC6F9" fill-rule="nonzero" points="125.631331 188.79682 125.631331 260.634276 157.202002 285.399293 157.202002 216.019435"></polygon>
                        <polygon id="Shape" stroke="none" fill="#C4E0F5" fill-rule="nonzero" points="125.631331 274.245583 125.631331 346.083039 157.202002 370.848057 157.202002 301.468198"></polygon>
                        <polygon id="Shape" stroke="none" fill="#361828" fill-rule="nonzero" points="174.657244 383.955241 174.657244 455.792697 206.227915 476.209658 206.227915 411.240872"></polygon>
                        <polygon id="Rectangle-path" stroke="none" fill="#312B69" fill-rule="nonzero" points="447.261484 758.833333 448.206714 758.833333 448.206714 879.822733 447.261484 879.822733"></polygon>
                        <ellipse id="Oval" stroke="none" fill="#FD6B4D" fill-rule="nonzero" cx="448.206714" cy="758.833333" rx="14.1784452" ry="17.0141343"></ellipse>
                        <path d="M1325.88398,306.95053 L1377.68257,212.679623 L1377.68257,776.603651 C1377.68257,776.603651 1325.00177,773.200824 1323.30035,768.096584 C1321.59894,762.992344 1325.88398,306.95053 1325.88398,306.95053 Z" id="Shape" stroke="none" fill="#C4E0F5" fill-rule="nonzero"></path>
                        <polygon id="Rectangle-path" stroke="none" fill="#FFFFFF" fill-rule="nonzero" points="1421.28916 427.813899 1608.19258 427.813899 1608.19258 806.661955 1421.28916 806.661955"></polygon>
                        <g id="Group" stroke="none" stroke-width="1" fill="none" fill-rule="evenodd" transform="translate(1433.451119, 505.574794)">
                            <polygon id="Shape" fill="#C4E0F5" fill-rule="nonzero" points="160.247939 1.26030624 2.26855124 1.26030624 1.38633687 292.64311 161.130153 292.64311"></polygon>
                            <path d="M162.075383,293.588339 L0.504122497,293.588339 L1.38633687,0.315076561 L161.256184,0.315076561 L162.075383,293.588339 Z M2.33156655,291.69788 L160.121908,291.69788 L159.302709,2.20553592 L3.15076561,2.20553592 L2.33156655,291.69788 Z" id="Shape" fill="#361828" fill-rule="nonzero"></path>
                        </g>
                        <g id="Group" stroke="none" stroke-width="1" fill="none" fill-rule="evenodd" transform="translate(1537.426384, 506.835100)">
                            <polygon id="Shape" fill="#B6D9EF" fill-rule="nonzero" points="1.07126031 30.3103651 57.1548881 1.70141343 57.1548881 290.500589 1.07126031 262.710836"></polygon>
                            <path d="M58.1001178,292.075972 L0.126030624,263.340989 L0.126030624,29.7432273 L58.1001178,0.126030624 L58.1001178,292.075972 Z M2.01648999,262.143698 L56.2096584,288.988221 L56.2096584,3.21378092 L2.01648999,30.8775029 L2.01648999,262.143698 Z" id="Shape" fill="#361828" fill-rule="nonzero"></path>
                        </g>
                        <polygon id="Shape" stroke="none" fill="#8DC6F9" fill-rule="nonzero" points="1501.94876 511.057126 1430.61543 556.932273 1430.61543 510.237927"></polygon>
                        <polygon id="Rectangle-path" stroke="none" fill="#361828" fill-rule="nonzero" transform="translate(1510.994107, 559.518485) rotate(-180.000000) translate(-1510.994107, -559.518485) " points="1429.67285 553.563538 1592.31537 553.563538 1592.31537 565.473432 1429.67285 565.473432"></polygon>
                        <rect id="Rectangle-path" stroke="none" fill="#361828" fill-rule="nonzero" transform="translate(1511.707504, 679.254194) rotate(-180.000000) translate(-1511.707504, -679.254194) " x="1428.02317" y="674.149954" width="167.368669" height="10.2084806"></rect>
                        <polygon id="Rectangle-path" stroke="none" fill="#C4E0F5" fill-rule="nonzero" transform="translate(1417.860564, 587.543726) rotate(-180.000000) translate(-1417.860564, -587.543726) " points="1396.6244 365.82435 1439.09672 365.82435 1439.09672 809.263101 1396.6244 809.263101"></polygon>
                        <polygon id="Rectangle-path" stroke="none" fill="#361828" fill-rule="nonzero" transform="translate(1552.476457, 650.789044) rotate(-180.000000) translate(-1552.476457, -650.789044) " points="1549.45172 505.003119 1555.50119 505.003119 1555.50119 796.574968 1549.45172 796.574968"></polygon>
                        <polygon id="Rectangle-path" stroke="none" fill="#361828" fill-rule="nonzero" transform="translate(1505.800889, 652.889470) rotate(-180.000000) translate(-1505.800889, -652.889470) " points="1502.77615 506.693946 1508.82562 506.693946 1508.82562 799.084994 1502.77615 799.084994"></polygon>
                        <polygon id="Rectangle-path" stroke="none" fill="#361828" fill-rule="nonzero" transform="translate(1462.066372, 652.108710) rotate(-180.000000) translate(-1462.066372, -652.108710) " points="1459.51425 505.157002 1464.61849 505.157002 1464.61849 799.060418 1459.51425 799.060418"></polygon>
                        <polygon id="Rectangle-path" stroke="none" fill="#FFFFFF" fill-rule="nonzero" transform="translate(1422.249328, 461.473843) rotate(-180.000000) translate(-1422.249328, -461.473843) " points="1405.6763 460.276552 1438.82236 460.276552 1438.82236 462.671134 1405.6763 462.671134"></polygon>
                        <polygon id="Rectangle-path" stroke="none" fill="#FFFFFF" fill-rule="nonzero" transform="translate(1402.959963, 488.135558) rotate(-180.000000) translate(-1402.959963, -488.135558) " points="1393.72822 487.284852 1412.19171 487.284852 1412.19171 488.986265 1393.72822 488.986265"></polygon>
                        <polygon id="Rectangle-path" stroke="none" fill="#FFFFFF" fill-rule="nonzero" transform="translate(1410.141440, 516.160862) rotate(-180.000000) translate(-1410.141440, -516.160862) " points="1393.56841 513.608742 1426.71447 513.608742 1426.71447 518.712982 1393.56841 518.712982"></polygon>
                        <polygon id="Rectangle-path" stroke="none" fill="#FFFFFF" fill-rule="nonzero" transform="translate(1409.830711, 438.324601) rotate(-180.000000) translate(-1409.830711, -438.324601) " points="1393.25768 437.12731 1426.40374 437.12731 1426.40374 439.521892 1393.25768 439.521892"></polygon>
                        <polygon id="Rectangle-path" stroke="none" fill="#FFFFFF" fill-rule="nonzero" transform="translate(1412.317611, 543.369362) rotate(-180.000000) translate(-1412.317611, -543.369362) " points="1395.74458 542.518655 1428.89064 542.518655 1428.89064 544.220068 1395.74458 544.220068"></polygon>
                        <polygon id="Rectangle-path" stroke="none" fill="#FFFFFF" fill-rule="nonzero" transform="translate(1411.074067, 400.666587) rotate(-180.000000) translate(-1411.074067, -400.666587) " points="1394.50104 399.81588 1427.64709 399.81588 1427.64709 401.517294 1394.50104 401.517294"></polygon>
                        <polygon id="Rectangle-path" stroke="none" fill="#FFFFFF" fill-rule="nonzero" transform="translate(1410.141440, 562.031850) rotate(-180.000000) translate(-1410.141440, -562.031850) " points="1393.56841 561.181144 1426.71447 561.181144 1426.71447 562.882557 1393.56841 562.882557"></polygon>
                        <polygon id="Rectangle-path" stroke="none" fill="#FFFFFF" fill-rule="nonzero" points="1403.77091 698.842756 1436.91696 698.842756 1436.91696 701.237338 1403.77091 701.237338"></polygon>
                        <polygon id="Rectangle-path" stroke="none" fill="#FFFFFF" fill-rule="nonzero" points="1420.15489 670.800942 1438.61837 670.800942 1438.61837 672.502356 1420.15489 672.502356"></polygon>
                        <polygon id="Rectangle-path" stroke="none" fill="#FFFFFF" fill-rule="nonzero" points="1400.55713 647.863369 1433.70318 647.863369 1433.70318 652.967609 1400.55713 652.967609"></polygon>
                        <polygon id="Rectangle-path" stroke="none" fill="#FFFFFF" fill-rule="nonzero" points="1397.46938 723.607774 1430.61543 723.607774 1430.61543 726.002356 1397.46938 726.002356"></polygon>
                        <polygon id="Rectangle-path" stroke="none" fill="#FFFFFF" fill-rule="nonzero" points="1403.45583 615.599529 1436.60188 615.599529 1436.60188 617.300942 1403.45583 617.300942"></polygon>
                        <polygon id="Rectangle-path" stroke="none" fill="#FFFFFF" fill-rule="nonzero" points="1404.65312 758.266196 1437.79918 758.266196 1437.79918 759.967609 1404.65312 759.967609"></polygon>
                        <polygon id="Rectangle-path" stroke="none" fill="#FFFFFF" fill-rule="nonzero" points="1405.59835 596.883981 1438.74441 596.883981 1438.74441 598.585395 1405.59835 598.585395"></polygon>
                        <polygon id="Rectangle-path" stroke="none" fill="#3151B7" fill-rule="nonzero" transform="translate(1322.976644, 602.404690) rotate(-180.000000) translate(-1322.976644, -602.404690) " points="1280.69337 596.89085 1365.25992 596.89085 1365.25992 607.91853 1280.69337 607.91853"></polygon>
                        <polygon id="Shape" stroke="none" fill="#8DC6F9" fill-rule="nonzero" points="1397.46938 366.247939 1365.20554 412.123086 1365.20554 801.053592 1400.8722 809.68669"></polygon>
                        <polygon id="Rectangle-path" stroke="none" fill="#312B69" fill-rule="nonzero" transform="translate(1322.597481, 586.151843) rotate(-90.000000) translate(-1322.597481, -586.151843) " points="1322.09336 543.364446 1323.1016 543.364446 1323.1016 628.93924 1322.09336 628.93924"></polygon>
                        <polygon id="Rectangle-path" stroke="none" fill="#312B69" fill-rule="nonzero" transform="translate(1322.604727, 591.248837) rotate(-90.000000) translate(-1322.604727, -591.248837) " points="1322.1006 548.46144 1323.10885 548.46144 1323.10885 634.036234 1322.1006 634.036234"></polygon>
                        <polygon id="Shape" stroke="none" fill="#C4E0F5" fill-rule="nonzero" points="1604.66372 847.684923 1511.77915 815.547114 1511.77915 243.494111 1604.66372 112.359246"></polygon>
                        <polygon id="Shape" stroke="none" fill="#8DC6F9" fill-rule="nonzero" points="1855.46466 856.381037 1604.66372 847.684923 1604.66372 112.359246 1855.46466 112.359246"></polygon>
                        <rect id="Rectangle-path" stroke="none" fill="#142F85" fill-rule="nonzero" x="1618.21201" y="651.896349" width="250.863958" height="58.8563015"></rect>
                        <polygon id="Rectangle-path" stroke="none" fill="#361828" fill-rule="nonzero" points="1613.29682 280.421084 1861.01001 280.421084 1861.01001 328.627797 1613.29682 328.627797"></polygon>
                        <rect id="Rectangle-path" stroke="none" fill="#FD6B4D" fill-rule="nonzero" x="1618.21201" y="710.75265" width="250.863958" height="138.507656"></rect>
                        <rect id="Rectangle-path" stroke="none" fill="#361828" fill-rule="nonzero" transform="translate(1646.099693, 758.119622) rotate(-180.000000) translate(-1646.099693, -758.119622) " x="1643.73662" y="662.367855" width="4.72614841" height="191.503534"></rect>
                        <path d="M1786.65194,833.632509 C1786.65194,833.632509 1789.48763,810.757951 1785.26561,819.64311 C1781.04358,828.528269 1775.18316,829.914605 1775.18316,829.914605 C1775.18316,829.914605 1775.68728,817.62662 1771.52827,824.054181 C1767.43227,830.481743 1768.44052,829.662544 1765.66784,826.259717 C1762.89517,822.85689 1762.39105,811.325088 1760.05948,821.092462 C1757.72792,830.859835 1750.22909,825.629564 1750.22909,825.629564 C1750.22909,825.629564 1755.71143,834.073616 1746.19611,829.599529 C1736.74382,825.125442 1740.08363,813.782686 1734.09717,818.445819 C1728.11072,823.108952 1726.85041,830.481743 1726.03121,827.961131 C1725.149,825.440518 1715.12956,811.136042 1713.80624,820.084217 C1712.48292,829.095406 1713.36514,830.733804 1709.5212,830.607774 C1705.67727,830.481743 1692.69611,816.80742 1691.37279,824.999411 C1690.11249,833.191402 1690.11249,833.191402 1690.11249,833.191402 L1677.8245,826.133687 C1677.8245,826.133687 1678.6437,829.473498 1673.85453,828.465253 C1669.06537,827.457008 1666.48174,819.958186 1662.38575,824.74735 C1658.28975,829.536514 1658.35277,829.536514 1658.35277,829.536514 L1628.29446,832.498233 L1786.65194,833.632509 Z" id="Shape" stroke="none" fill="#3151B7" fill-rule="nonzero"></path>
                        <polygon id="Rectangle-path" stroke="none" fill="#FFFFFF" fill-rule="nonzero" points="1592.6278 648.997644 1869.07597 648.997644 1869.07597 663.30212 1592.6278 663.30212"></polygon>
                        <polygon id="Rectangle-path" stroke="none" fill="#FFFFFF" fill-rule="nonzero" points="1612.7927 832.372203 1795.03298 832.372203 1795.03298 854.238516 1612.7927 854.238516"></polygon>
                        <polygon id="Rectangle-path" stroke="none" fill="#FFFFFF" fill-rule="nonzero" points="1701.95936 364.231449 1733.53004 364.231449 1733.53004 430.208481 1701.95936 430.208481"></polygon>
                        <polygon id="Rectangle-path" stroke="none" fill="#FFFFFF" fill-rule="nonzero" points="1637.30565 364.231449 1668.87633 364.231449 1668.87633 430.208481 1637.30565 430.208481"></polygon>
                        <g id="Group" stroke="none" stroke-width="1" fill="none" fill-rule="evenodd" transform="translate(1607.373380, 273.678445)">
                            <polygon id="Rectangle-path" fill="#FFFFFF" fill-rule="nonzero" points="1.00824499 1.00824499 253.258539 1.00824499 253.258539 12.1619552 1.00824499 12.1619552"></polygon>
                            <path d="M254.203769,13.0441696 L0.0630153121,13.0441696 L0.0630153121,0 L254.203769,0 L254.203769,13.0441696 Z M1.95347468,11.1537102 L252.31331,11.1537102 L252.31331,1.89045936 L1.95347468,1.89045936 L1.95347468,11.1537102 Z" id="Shape" fill="#8DC6F9" fill-rule="nonzero"></path>
                        </g>
                        <path d="M1349.76678,669.540636 L1345.41873,654.795053 C1345.41873,654.795053 1343.96938,628.265607 1332.43757,642.255006 C1320.90577,656.244405 1322.35512,655.551237 1315.10836,652.589517 C1307.92462,649.627797 1312.20966,644.460542 1307.92462,649.627797 C1303.63958,654.795053 1299.29152,651.833333 1299.29152,651.833333 C1299.29152,651.833333 1307.92462,662.924028 1297.84217,657.000589 C1287.75972,651.07715 1284.86101,642.255006 1283.41166,648.178445 C1281.96231,654.101885 1283.41166,656.30742 1283.41166,656.30742 L1273.32921,657.063604 L1290.65842,671.809187 L1349.76678,669.540636 Z" id="Shape" stroke="none" fill="#8DC6F9" fill-rule="nonzero"></path>
                        <polygon id="Shape" stroke="none" fill="url(#linearGradient-11)" fill-rule="nonzero" points="1279.81979 689.453475 1365.20554 689.453475 1365.20554 665.696702 1279.81979 665.696702"></polygon>
                        <polygon id="Rectangle-path" stroke="none" fill="#3151B7" fill-rule="nonzero" transform="translate(1322.483675, 683.966353) rotate(-180.000000) translate(-1322.483675, -683.966353) " points="1279.7908 678.452514 1365.17655 678.452514 1365.17655 689.480193 1279.7908 689.480193"></polygon>
                        <polygon id="Shape" stroke="none" fill="#8DC6F9" fill-rule="nonzero" points="1211.63722 783.409305 749.734982 783.409305 761.707892 779.943463 1198.08893 779.943463"></polygon>
                        <polygon id="Shape" stroke="none" fill="#FFB000" fill-rule="nonzero" points="926.429918 759.211425 902.799176 913.914016 916.977621 914.796231 929.580683 759.14841"></polygon>
                        <polygon id="Shape" stroke="none" fill="#FFB000" fill-rule="nonzero" points="937.772674 759.841578 953.841578 908.242638 939.663133 908.242638 934.936985 759.841578"></polygon>
                        <polygon id="Shape" stroke="none" fill="#FFFFFF" fill-rule="nonzero" points="1588.40577 914.859246 388.657244 914.859246 425.521201 904.46172 1557.84335 904.46172"></polygon>
                        <path d="M1582.3563,730.161366 L1577.69317,876.041814 L1569.94229,876.041814 L1571.51767,734.194346 C1571.51767,734.194346 1511.52709,709.68139 1463.13133,699.472909 C1418.70554,690.083628 1348.56949,687.373969 1348.56949,687.373969 L1346.99411,679.244994 C1346.99411,679.244994 1454.18316,689.894582 1471.19729,695.250883 C1488.21143,700.607185 1582.3563,730.161366 1582.3563,730.161366 Z" id="Shape" stroke="none" fill="#FFFFFF" fill-rule="nonzero"></path>
                        <rect id="Rectangle-path" stroke="none" fill="#8DC6F9" fill-rule="nonzero" x="889.061837" y="669.981743" width="24.5759717" height="11.0276796"></rect>
                        <rect id="Rectangle-path" stroke="none" fill="#8DC6F9" fill-rule="nonzero" x="889.061837" y="689.642521" width="24.5759717" height="11.0276796"></rect>
                        <rect id="Rectangle-path" stroke="none" fill="#8DC6F9" fill-rule="nonzero" x="889.061837" y="708.547114" width="24.5759717" height="11.0276796"></rect>
                        <polygon id="Shape" stroke="none" fill="#FD6B4D" fill-rule="nonzero" points="697.621319 721.78033 697.621319 733.060071 697.621319 762.488221 693.084217 760.975854 693.084217 709.68139"></polygon>
                        <path d="M723.835689,699.409894 C717.786219,705.459364 710.287397,706.971731 708.775029,705.459364 C707.262662,703.946996 720.810954,681.324499 713.312132,691.911072 C705.750294,702.497644 702.725559,705.459364 702.725559,705.459364 C702.725559,705.459364 708.775029,673.762662 702.725559,685.861602 C696.67609,697.960542 696.67609,699.409894 696.67609,699.409894 C696.67609,699.409894 696.67609,679.812132 692.138987,690.335689 C687.601885,700.922261 678.590695,688.823322 678.590695,688.823322 L684.640165,711.445819 L671.091873,700.859246 C671.091873,700.859246 685.585395,730.728504 695.226737,731.043581 C705.876325,731.421673 723.835689,699.409894 723.835689,699.409894 Z" id="Shape" stroke="none" fill="#8DC6F9" fill-rule="nonzero"></path>
                        <polygon id="Rectangle-path" stroke="none" fill="#FFFFFF" fill-rule="nonzero" transform="translate(1558.668587, 230.420355) rotate(-49.676500) translate(-1558.668587, -230.420355) " points="1492.94387 229.475129 1624.3933 229.475129 1624.3933 231.365581 1492.94387 231.365581"></polygon>
                        <polygon id="Rectangle-path" stroke="none" fill="#FFFFFF" fill-rule="nonzero" transform="translate(1560.510493, 281.438756) rotate(-41.911409) translate(-1560.510493, -281.438756) " points="1510.97903 280.493499 1610.04196 280.493499 1610.04196 282.384013 1510.97903 282.384013"></polygon>
                        <rect id="Rectangle-path" stroke="none" fill="#FFFFFF" fill-rule="nonzero" transform="translate(450.101439, 374.141609) rotate(-54.310465) translate(-450.101439, -374.141609) " x="449.156198" y="291.496018" width="1.89048243" height="165.29118"></rect>
                        <path d="M648.658422,377.905771 L588.163722,377.905771 L588.163722,220.997644 L648.658422,220.997644 L648.658422,377.905771 Z M590.054181,376.015312 L646.767962,376.015312 L646.767962,222.888104 L590.054181,222.888104 L590.054181,376.015312 Z" id="Shape" stroke="none" fill="#FFFFFF" fill-rule="nonzero"></path>
                        <polygon id="Shape" stroke="none" fill="#FFFFFF" fill-rule="nonzero" points="1570.63545 410.925795 1570.63545 470.41225 1558.28445 490.199058 1558.28445 428.255006"></polygon>
                        <polygon id="Shape" stroke="none" fill="#FFFFFF" fill-rule="nonzero" points="1570.95053 316.717903 1570.95053 376.204358 1558.53651 395.991166 1558.53651 334.11013"></polygon>
                        <polygon id="Rectangle-path" stroke="none" fill="#8DC6F9" fill-rule="nonzero" points="1091.59305 396.621319 1102.43168 396.621319 1102.43168 414.013545 1091.59305 414.013545"></polygon>
                        <polygon id="Rectangle-path" stroke="none" fill="#8DC6F9" fill-rule="nonzero" points="1091.59305 396.621319 1102.43168 396.621319 1102.43168 414.013545 1091.59305 414.013545"></polygon>
                        <polygon id="Rectangle-path" stroke="none" fill="#8DC6F9" fill-rule="nonzero" points="1261.59305 536.621319 1272.43168 536.621319 1272.43168 554.013545 1261.59305 554.013545"></polygon>
                        <polygon id="Rectangle-path" stroke="none" fill="#8DC6F9" fill-rule="nonzero" points="1261.59305 506.621319 1272.43168 506.621319 1272.43168 524.013545 1261.59305 524.013545"></polygon>
                        <polygon id="Rectangle-path" stroke="none" fill="#8DC6F9" fill-rule="nonzero" points="1261.59305 476.621319 1272.43168 476.621319 1272.43168 494.013545 1261.59305 494.013545"></polygon>
                        <polygon id="Rectangle-path" stroke="none" fill="#8DC6F9" fill-rule="nonzero" points="1261.59305 446.621319 1272.43168 446.621319 1272.43168 464.013545 1261.59305 464.013545"></polygon>
                        <polygon id="Rectangle-path" stroke="none" fill="#8DC6F9" fill-rule="nonzero" points="1261.59305 416.621319 1272.43168 416.621319 1272.43168 434.013545 1261.59305 434.013545"></polygon>
                        <polygon id="Rectangle-path" stroke="none" fill="#8DC6F9" fill-rule="nonzero" points="1261.59305 386.621319 1272.43168 386.621319 1272.43168 404.013545 1261.59305 404.013545"></polygon>
                        <polygon id="Rectangle-path" stroke="none" fill="#8DC6F9" fill-rule="nonzero" points="1261.59305 356.621319 1272.43168 356.621319 1272.43168 374.013545 1261.59305 374.013545"></polygon>
                        <polygon id="Rectangle-path" stroke="none" fill="#8DC6F9" fill-rule="nonzero" points="1261.59305 326.621319 1272.43168 326.621319 1272.43168 344.013545 1261.59305 344.013545"></polygon>
                        <g id="Group" stroke="none" stroke-width="1" fill="none" fill-rule="evenodd" transform="translate(485.700824, 780.321555)">
                            <polygon id="Shape" fill="#FD6B4D" fill-rule="nonzero" points="0.252061249 4.28504122 33.8392226 0.504122497 36.6749117 3.02473498 36.6749117 8.38103651 41.590106 8.57008245 41.590106 13.926384 47.7656066 14.5565371 47.7656066 19.0306243 53.3739694 19.2826855 53.3739694 23.9458186 59.7385159 25.0170789 50.1601885 28.0418139 27.4746761 30.8144876 7.75088339 23.5047114"></polygon>
                            <polygon id="Shape" fill="#142F85" fill-rule="nonzero" points="0.252061249 4.28504122 0.252061249 28.861013 28.2938751 32.5159011 28.2938751 28.861013 21.4252061 27.4116608 21.4252061 24.1978799 15.6908127 23.7567727 15.6908127 18.5895171 10.9646643 17.3292108 10.9646643 13.926384 6.67962309 12.1619552 6.67962309 5.98645465"></polygon>
                            <polygon id="Shape" fill="#361828" fill-rule="nonzero" points="59.7385159 25.0170789 59.7385159 28.671967 28.2938751 32.5159011 28.2938751 28.861013"></polygon>
                        </g>
                        <rect id="Rectangle-path" stroke="none" fill="#FD6B4D" fill-rule="nonzero" x="526.09364" y="596.064782" width="203.161366" height="1.26030624"></rect>
                        <path d="M1737.94111,433.674323 L1705.11013,433.674323 L1705.11013,366.436985 L1737.94111,366.436985 L1737.94111,433.674323 Z M1706.37044,432.414016 L1736.6808,432.414016 L1736.6808,367.697291 L1706.37044,367.697291 L1706.37044,432.414016 Z" id="Shape" stroke="none" fill="#312B69" fill-rule="nonzero"></path>
                        <path d="M1673.2874,433.674323 L1640.45642,433.674323 L1640.45642,366.436985 L1673.2874,366.436985 L1673.2874,433.674323 Z M1641.71673,432.414016 L1672.02709,432.414016 L1672.02709,367.697291 L1641.71673,367.697291 L1641.71673,432.414016 Z" id="Shape" stroke="none" fill="#312B69" fill-rule="nonzero"></path>
                        <path d="M154.996466,285.71437 L122.165489,259.941107 L122.165489,186.402238 L154.996466,214.759128 L154.996466,285.71437 Z M123.425795,259.373969 L153.73616,283.130742 L153.73616,215.326266 L123.425795,189.174912 L123.425795,259.373969 Z" id="Shape" stroke="none" fill="#312B69" fill-rule="nonzero"></path>
                        <path d="M154.996466,371.226148 L122.165489,345.452886 L122.165489,271.914016 L154.996466,300.270907 L154.996466,371.226148 Z M123.425795,344.822733 L153.73616,368.579505 L153.73616,300.775029 L123.425795,274.623675 L123.425795,344.822733 Z" id="Shape" stroke="none" fill="#312B69" fill-rule="nonzero"></path>
                        <path d="M629.816843,652.652532 L634.479976,798.53298 L642.23086,798.53298 L640.655477,656.685512 C640.655477,656.685512 700.646054,632.172556 749.041814,621.964075 C793.467609,612.574794 863.603651,609.865135 863.603651,609.865135 L856.987044,601.73616 C856.987044,601.73616 757.989988,612.385748 740.975854,617.742049 C723.898704,623.098351 629.816843,652.652532 629.816843,652.652532 Z" id="Shape" stroke="none" fill="#FFFFFF" fill-rule="nonzero"></path>
                        <g id="Group-2" stroke="none" stroke-width="1" fill="none" fill-rule="evenodd" transform="translate(1235.000000, 793.500000) scale(-1, 1) translate(-1235.000000, -793.500000) translate(1142.000000, 766.000000)">
                            <path d="M2.27149588,26.5465253 C-1.19434629,30.2014134 0.696113074,41.6071849 0.696113074,41.6071849 L184.952886,41.6071849 C184.952886,41.6071849 188.040636,30.8945819 180.289753,26.8616019 C172.538869,22.8286219 136.935218,20.1819788 136.935218,20.1819788 C136.935218,20.1819788 120.11013,7.89399293 113.682568,5.43639576 C100.260306,0.395170789 69.5718492,-1.55830389 56.401649,4.1130742 C52.6837456,5.68845701 45.5630153,16.1489988 45.5630153,16.1489988 C45.5630153,16.1489988 9.83333333,18.6696113 2.27149588,26.5465253 Z" id="Shape" fill="#FFB000" fill-rule="nonzero"></path>
                            <path d="M54.5742049,16.1489988 C54.5742049,16.1489988 57.6619552,8.83922261 59.5524146,7.57891637 C64.9717314,3.86101296 85.8928151,6.25559482 85.8928151,6.25559482 L90.5559482,16.4640754 L54.5742049,16.1489988 Z" id="Shape" fill="#361828" fill-rule="nonzero"></path>
                            <circle id="Oval" fill="#361828" fill-rule="nonzero" cx="145.694346" cy="42.0482921" r="12.2879859"></circle>
                            <circle id="Oval" fill="#361828" fill-rule="nonzero" cx="58.6071849" cy="42.0482921" r="12.2879859"></circle>
                            <path d="M91.8162544,6.44464075 L96.5424028,15.581861 L121.118375,15.581861 C121.118375,15.581861 115.446996,8.96525324 107.885159,7.07479388 C100.323322,5.18433451 91.8162544,6.44464075 91.8162544,6.44464075 Z" id="Shape" fill="#361828" fill-rule="nonzero"></path>
                        </g>
                        <polygon id="Rectangle-path" stroke="none" fill="#142F85" fill-rule="nonzero" points="593.772085 596.064782 596.79682 596.064782 596.79682 788.513545 593.772085 788.513545"></polygon>
                        <polygon id="Shape" stroke="none" fill="#FFFFFF" fill-rule="nonzero" points="271.448763 859.02768 271.448763 845.857479 133.44523 879.885748 134.390459 895.009423"></polygon>
                        <path d="M9.9352179,641.624853 C9.9352179,641.624853 0.482921084,705.900471 66.6489988,696.448174 C87.1919906,693.486455 65.8297998,738.794464 77.991755,732.366902 C125.5053,707.286808 95.6990577,772.066549 119.581861,779.628386 C155.500589,790.971143 105.151355,845.605418 98.786808,853.356302 C88.2632509,866.211425 99.4799764,887.321555 91.2249706,902.508245 C74.147821,933.88987 56.2514723,945.295642 40.1825677,940.317432 C24.1136631,935.339223 0.482921084,923.303298 0.482921084,923.303298 L9.9352179,641.624853 Z" id="Shape" stroke="none" fill="#361828" fill-rule="nonzero"></path>
                        <path d="M912.314488,203.857479 C910.424028,204.487633 749.734982,203.857479 749.734982,203.857479 L807.709069,200.076561 C807.709069,200.076561 804.558304,184.322733 817.791519,191.88457 C831.024735,199.446408 846.778563,191.88457 851.189635,196.295642 C855.600707,200.706714 870.094229,196.295642 874.5053,200.076561 C878.916372,203.857479 912.314488,203.857479 912.314488,203.857479 Z" id="Shape" stroke="none" fill="#C4E0F5" fill-rule="nonzero"></path>
                        <polygon id="Shape" stroke="none" fill="#FFFFFF" fill-rule="nonzero" points="174.657244 473.436985 174.657244 545.274441 206.227915 554.348645 206.227915 493.790931"></polygon>
                        <polygon id="Shape" stroke="none" fill="#FFFFFF" fill-rule="nonzero" points="191.419317 864.762073 191.419317 675.716137 251.914016 673.195524 251.914016 849.638398"></polygon>
                        <polygon id="Shape" stroke="none" fill="#FD6B4D" fill-rule="nonzero" points="199.1702 860.540047 192.301531 861.800353 192.301531 674.014723 199.1702 674.014723"></polygon>
                        <path d="M206.227915,855.939929 L205.597762,855.939929 L205.597762,851.591873 L206.227915,851.591873 L206.227915,855.939929 Z M206.227915,847.180801 L205.597762,847.180801 L205.597762,842.769729 L206.227915,842.769729 L206.227915,847.180801 Z M206.227915,838.358657 L205.597762,838.358657 L205.597762,833.947585 L206.227915,833.947585 L206.227915,838.358657 Z M206.227915,829.536514 L205.597762,829.536514 L205.597762,825.125442 L206.227915,825.125442 L206.227915,829.536514 Z M206.227915,820.71437 L205.597762,820.71437 L205.597762,816.303298 L206.227915,816.303298 L206.227915,820.71437 Z M206.227915,811.892226 L205.597762,811.892226 L205.597762,807.481154 L206.227915,807.481154 L206.227915,811.892226 Z M206.227915,803.070082 L205.597762,803.070082 L205.597762,798.659011 L206.227915,798.659011 L206.227915,803.070082 Z M206.227915,794.247939 L205.597762,794.247939 L205.597762,789.836867 L206.227915,789.836867 L206.227915,794.247939 Z M206.227915,785.425795 L205.597762,785.425795 L205.597762,781.014723 L206.227915,781.014723 L206.227915,785.425795 Z M206.227915,776.603651 L205.597762,776.603651 L205.597762,772.19258 L206.227915,772.19258 L206.227915,776.603651 Z M206.227915,767.781508 L205.597762,767.781508 L205.597762,763.370436 L206.227915,763.370436 L206.227915,767.781508 Z M206.227915,758.959364 L205.597762,758.959364 L205.597762,754.548292 L206.227915,754.548292 L206.227915,758.959364 Z M206.227915,750.13722 L205.597762,750.13722 L205.597762,745.726148 L206.227915,745.726148 L206.227915,750.13722 Z M206.227915,741.315077 L205.597762,741.315077 L205.597762,736.904005 L206.227915,736.904005 L206.227915,741.315077 Z M206.227915,732.492933 L205.597762,732.492933 L205.597762,728.081861 L206.227915,728.081861 L206.227915,732.492933 Z M206.227915,723.670789 L205.597762,723.670789 L205.597762,719.259717 L206.227915,719.259717 L206.227915,723.670789 Z M206.227915,714.848645 L205.597762,714.848645 L205.597762,710.437574 L206.227915,710.437574 L206.227915,714.848645 Z M206.227915,706.026502 L205.597762,706.026502 L205.597762,701.61543 L206.227915,701.61543 L206.227915,706.026502 Z M206.227915,697.204358 L205.597762,697.204358 L205.597762,692.793286 L206.227915,692.793286 L206.227915,697.204358 Z M206.227915,688.382214 L205.597762,688.382214 L205.597762,683.971143 L206.227915,683.971143 L206.227915,688.382214 Z M206.227915,679.560071 L205.597762,679.560071 L205.597762,675.148999 L206.227915,675.148999 L206.227915,679.560071 Z" id="Shape" stroke="none" fill="#141454" fill-rule="nonzero"></path>
                        <path d="M489.166667,780.069494 L489.166667,663.428151 L517.523557,663.428151 L517.523557,777.42285 L489.166667,780.069494 Z M491.057126,665.31861 L491.057126,778.053004 L515.633098,775.721437 L515.633098,665.31861 L491.057126,665.31861 Z" id="Shape" stroke="none" fill="#FFFFFF" fill-rule="nonzero"></path>
                        <g id="Group" stroke="none" stroke-width="1" fill="none" fill-rule="evenodd" transform="translate(84.293286, 428.696113)">
                            <polygon id="Shape" fill="#FD6B4D" fill-rule="nonzero" points="40.8969376 479.672556 122.249706 458.877503 191.503534 458.877503 118.216726 481.373969"></polygon>
                            <path d="M206.87927,277.708481 C187.281508,285.522379 171.65371,262.017668 162.831567,272.793286 C154.009423,283.568905 148.148999,287.475854 144.242049,291.382803 C140.3351,295.289753 105.109541,277.645465 95.2791519,285.522379 C85.5117786,293.336278 51.9246172,303.92285 46.0641932,296.108952 C40.2037691,288.295053 33.3351001,277.267373 33.9652532,270.146643 C34.6584217,262.206714 46.7573616,246.830978 40.8969376,238.954064 C35.0365135,231.140165 8.63309776,234.984099 2.77267373,226.855124 C-6.2385159,214.252061 13.9893993,169.952297 21.803298,167.998822 C29.6171967,166.045347 49.2779741,166.738516 51.2314488,162.831567 C53.1849234,158.924617 45.1189635,136.113074 52.9328622,112.608363 C60.7467609,89.1036514 71.7114252,103.471143 75.6183746,103.471143 C79.5253239,103.471143 111.789164,113.238516 118.02768,95.3421673 C120.296231,88.9146054 97.7997644,58.7932862 114.750883,50.6012956 C123.636042,46.3162544 79.5253239,-27.7267373 118.657833,11.4687868 C157.790342,50.664311 163.713781,54.5712603 163.713781,54.5712603 C163.713781,54.5712603 165.667256,-23.7567727 185.265018,29.1130742 C204.86278,81.9829211 208.769729,89.7968198 220.490577,99.6272085 C232.211425,109.457597 220.490577,78.0759717 242.041814,103.534158 C263.593051,128.992344 275.881037,194.402238 269.705536,215.197291 C258.866902,251.620141 226.477032,269.831567 206.87927,277.708481 Z" id="Shape" fill="#3151B7" fill-rule="nonzero"></path>
                            <polygon id="Shape" fill="#361828" fill-rule="nonzero" points="85.0706714 476.017668 91.7502945 436.255006 116.830389 170.015312 115.759128 202.657244 93.1996466 476.017668"></polygon>
                            <path d="M145.691402,469.148999 C145.691402,465.242049 155.962898,250.29682 155.962898,250.29682 L159.680801,154.072438 L159.869847,312.997055 L193.141932,228.808598 L182.996466,262.584806 L163.776796,322.764429 L152.686101,468.581861 L145.691402,469.148999 Z" id="Shape" fill="#361828" fill-rule="nonzero"></path>
                            <path d="M57.9110718,475.324499 C57.9110718,475.324499 61.9440518,436.633098 65.409894,444.762073 C68.8757362,452.828033 71.7744405,459.759717 71.7744405,459.759717 L74.6731449,469.590106 C74.6731449,469.590106 76.3745583,462.091284 77.5718492,464.42285 C78.7691402,466.754417 81.6048292,451.189635 81.6048292,458.121319 C81.6048292,465.053004 86.204947,473.623086 86.204947,473.623086 C86.204947,473.623086 97.1696113,462.658422 96.6024735,466.691402 C96.0353357,470.724382 96.6024735,475.324499 96.6024735,475.324499 L103.534158,475.324499 C103.534158,475.324499 88.4734982,477.530035 83.3062426,477.656066 C76.8786808,477.782097 57.9110718,475.324499 57.9110718,475.324499 Z" id="Shape" fill="#361828" fill-rule="nonzero"></path>
                            <polygon id="Shape" fill="#361828" fill-rule="nonzero" points="86.8981154 291.004711 105.487633 312.871025 104.920495 304.237927 91.246172 289.555359"></polygon>
                        </g>
                        <path d="M940.671378,584.974087 L940.671378,662.482921" id="Shape" stroke="#8DC6F9" stroke-width="1" fill="none"></path>
                        <path d="M993.289164,533.616608 L889.376914,533.616608" id="Shape" stroke="#8DC6F9" stroke-width="1" fill="none"></path>
                        <ellipse id="Oval" stroke="none" fill="#FFFFFF" fill-rule="nonzero" cx="448.206714" cy="758.581272" rx="9.76737338" ry="12.918139"></ellipse>
                        <polygon id="Shape" stroke="none" fill="#FFFFFF" fill-rule="nonzero" points="338.812132 348.855713 412.603062 398.700824 412.603062 482.889282 339.37927 435.564782"></polygon>
                    </g>
                </g>
            </g>
        </g>
    </g>
</svg>