<?xml version="1.0"?>
<svg xmlns="http://www.w3.org/2000/svg" xmlns:xlink="http://www.w3.org/1999/xlink" xmlns:svgjs="http://svgjs.com/svgjs" version="1.1" width="512" height="512" x="0" y="0" viewBox="0 0 511.996 511.996" style="enable-background:new 0 0 512 512" xml:space="preserve" class=""><g>
<path xmlns="http://www.w3.org/2000/svg" d="M428.225,172.227l-21.213,21.213l47.395,47.395H311.761c-5.333-19.806-20.956-35.429-40.763-40.763V57.427l47.558,47.557  l21.213-21.213L255.998,0l-83.771,83.771l21.213,21.213l47.558-47.557v142.645c-19.806,5.333-35.429,20.956-40.762,40.762H57.589  l47.395-47.395l-21.213-21.213L0,255.998l83.771,83.771l21.213-21.213l-47.722-47.721h142.973  c5.333,19.806,20.956,35.429,40.762,40.762v142.972l-47.558-47.558l-21.213,21.213l83.771,83.771l83.771-83.771l-21.213-21.213  l-47.558,47.558V311.597c19.806-5.333,35.429-20.956,40.762-40.762h142.973l-47.721,47.721l21.213,21.213l83.771-83.771  L428.225,172.227z" fill="#a1abc9" data-original="#000000" style="" class=""/>















</g></svg>
