<?xml version="1.0"?>
<svg xmlns="http://www.w3.org/2000/svg" xmlns:xlink="http://www.w3.org/1999/xlink" xmlns:svgjs="http://svgjs.com/svgjs" version="1.1" width="512" height="512" x="0" y="0" viewBox="0 0 512 512" style="enable-background:new 0 0 512 512" xml:space="preserve" class=""><g>
<g xmlns="http://www.w3.org/2000/svg">
	<g>
		<path d="M441.547,134.164C423.294,75.192,375.879,27.387,317.806,9.402c-61.841-19.151-126.312-8.755-176.88,28.522    c-24.23,17.861-44.336,41.42-58.143,68.127c-14.27,27.603-21.812,58.679-21.812,89.87c0,42.548,13.459,82.982,38.923,116.931    L256.02,512l155.932-198.894l0.195-0.254C450.253,262.043,460.97,196.913,441.547,134.164z M388.233,294.724L256.02,463.381    L123.806,294.724c-21.475-28.689-32.827-62.852-32.827-98.803c0-52.533,25.328-102.568,67.753-133.842    c42.814-31.561,97.559-40.312,150.198-24.012c48.752,15.098,88.584,55.32,103.953,104.969    C429.411,196.438,420.426,251.718,388.233,294.724z" fill="#a1abc9" data-original="#000000" style="" class=""/>
	</g>
</g>
<g xmlns="http://www.w3.org/2000/svg">
	<g>
		<path d="M256.02,90.895c-57.911,0-105.026,47.115-105.026,105.026c0,57.911,47.115,105.026,105.026,105.026    s105.026-47.115,105.026-105.026C361.046,138.01,313.931,90.895,256.02,90.895z M256.02,270.94    c-41.365,0-75.019-33.653-75.019-75.019c0-41.365,33.653-75.019,75.019-75.019s75.019,33.653,75.019,75.019    C331.039,237.286,297.385,270.94,256.02,270.94z" fill="#a1abc9" data-original="#000000" style="" class=""/>
	</g>
</g>
<g xmlns="http://www.w3.org/2000/svg">
</g>
<g xmlns="http://www.w3.org/2000/svg">
</g>
<g xmlns="http://www.w3.org/2000/svg">
</g>
<g xmlns="http://www.w3.org/2000/svg">
</g>
<g xmlns="http://www.w3.org/2000/svg">
</g>
<g xmlns="http://www.w3.org/2000/svg">
</g>
<g xmlns="http://www.w3.org/2000/svg">
</g>
<g xmlns="http://www.w3.org/2000/svg">
</g>
<g xmlns="http://www.w3.org/2000/svg">
</g>
<g xmlns="http://www.w3.org/2000/svg">
</g>
<g xmlns="http://www.w3.org/2000/svg">
</g>
<g xmlns="http://www.w3.org/2000/svg">
</g>
<g xmlns="http://www.w3.org/2000/svg">
</g>
<g xmlns="http://www.w3.org/2000/svg">
</g>
<g xmlns="http://www.w3.org/2000/svg">
</g>
</g></svg>
