<svg id="Capa_1" enable-background="new 0 0 512 512" height="512" viewBox="0 0 512 512" width="512" xmlns="http://www.w3.org/2000/svg" xmlns:xlink="http://www.w3.org/1999/xlink"><linearGradient id="SVGID_1_" gradientUnits="userSpaceOnUse" x1="256" x2="256" y1="512" y2="0"><stop offset="0" stop-color="#c3ffe8"/><stop offset=".9973" stop-color="#f0fff4"/></linearGradient><linearGradient id="SVGID_2_" gradientUnits="userSpaceOnUse" x1="256" x2="256" y1="371.5" y2="140.5"><stop offset="0" stop-color="#9cffac"/><stop offset="1" stop-color="#00b59c"/></linearGradient><g><g><circle cx="256" cy="256" fill="url(#SVGID_1_)" r="256"/></g><g><g><path d="m211.588 211.466h17.765v80.017c0 4.914 3.973 8.891 8.882 8.891h35.529c4.91 0 8.882-3.977 8.882-8.891v-80.017h17.765c3.452 0 6.575-1.997 8.05-5.123 1.457-3.117.989-6.807-1.232-9.464l-44.412-53.345c-3.365-4.046-10.27-4.046-13.636 0l-44.412 53.345c-2.22 2.657-2.689 6.347-1.232 9.464 1.476 3.126 4.599 5.123 8.051 5.123zm186.53 71.126h-71.059c-3.365 0-6.436 1.902-7.946 4.915l-15.301 30.649h-95.624l-15.301-30.649c-1.509-3.013-4.58-4.915-7.946-4.915h-71.059c-4.91 0-8.882 3.977-8.882 8.891v71.126c0 4.914 3.973 8.891 8.882 8.891h284.235c4.91 0 8.882-3.977 8.882-8.891v-71.126c.001-4.915-3.972-8.891-8.881-8.891z" fill="url(#SVGID_2_)"/></g></g></g></svg>